<?xml version="1.0" standalone="no"?>
<!DOCTYPE svg PUBLIC "-//W3C//DTD SVG 20010904//EN"
 "http://www.w3.org/TR/2001/REC-SVG-20010904/DTD/svg10.dtd">
<svg version="1.0" xmlns="http://www.w3.org/2000/svg"
 width="614.000000pt" height="614.000000pt" viewBox="0 0 614.000000 614.000000"
 preserveAspectRatio="xMidYMid meet">
<metadata>
Created by potrace 1.14, written by Peter Selinger 2001-2017
</metadata>
<g transform="translate(0.000000,614.000000) scale(0.100000,-0.100000)"
fill="#000000" stroke="none">
<path d="M164 3814 c4 -10 9 -23 10 -29 1 -5 5 -19 8 -30 4 -11 16 -52 28 -92
17 -59 24 -72 43 -75 18 -2 27 -19 52 -96 27 -84 34 -95 63 -107 27 -12 34
-23 49 -75 16 -53 22 -62 46 -67 32 -7 40 -19 57 -90 12 -52 16 -56 53 -56 9
0 17 -6 17 -13 0 -7 5 -16 12 -20 7 -5 8 -2 3 7 -5 8 -4 10 0 6 12 -10 15 -38
4 -31 -5 3 -5 -4 0 -18 5 -13 9 -27 8 -33 0 -13 55 -44 67 -37 4 2 5 -4 2 -15
-4 -14 4 -27 34 -50 l40 -30 -57 -30 c-187 -95 -283 -145 -283 -146 0 -1 104
-2 232 -2 188 0 233 -2 242 -14 6 -7 43 -46 81 -85 167 -170 407 -212 635
-113 80 35 187 132 239 216 9 14 99 20 118 8 6 -4 18 2 28 13 25 28 12 59 -40
98 -25 18 -43 36 -41 41 15 24 23 173 11 230 -28 142 -92 255 -198 345 -49 42
-159 100 -211 113 -104 24 -229 21 -316 -7 -37 -12 -103 -44 -156 -75 -30 -18
-31 -18 -85 7 -116 55 -213 99 -438 203 -129 59 -241 110 -250 115 -9 5 -34
16 -56 25 -22 10 -44 20 -49 23 -6 3 -6 -3 -2 -14z"/>
<path d="M2179 3154 c-65 -28 -89 -95 -52 -150 17 -27 36 -37 118 -64 43 -13
50 -19 51 -42 2 -55 -91 -54 -119 1 -7 13 -15 23 -19 22 -5 0 -19 -1 -33 -1
-19 0 -25 -5 -25 -23 0 -53 76 -116 135 -112 11 1 33 2 49 3 39 3 91 58 94
101 4 58 -23 98 -84 120 -29 11 -65 23 -79 27 -35 9 -42 24 -17 44 28 23 77
15 90 -15 9 -19 18 -23 43 -21 39 3 45 16 28 55 -25 55 -113 82 -180 55z"/>
<path d="M4631 3155 c-65 -22 -93 -90 -61 -143 20 -32 53 -53 105 -67 62 -17
75 -25 75 -47 0 -22 -52 -48 -83 -40 -11 3 -28 19 -38 37 -17 29 -23 32 -52
26 -28 -6 -32 -10 -29 -35 10 -80 122 -125 211 -86 44 20 69 59 66 105 -4 67
-23 86 -118 116 -73 23 -91 42 -61 63 31 23 94 2 94 -30 0 -10 10 -13 33 -10
17 3 35 5 39 5 23 2 -18 83 -51 101 -30 16 -92 18 -130 5z"/>
<path d="M5543 3156 c-45 -15 -64 -38 -73 -86 -7 -38 -5 -44 24 -75 18 -19 50
-38 76 -46 55 -16 58 -16 69 -18 16 -2 23 -41 11 -56 -13 -15 -56 -20 -85 -9
-8 4 -22 19 -30 33 -11 23 -19 27 -47 23 -31 -3 -34 -6 -30 -32 6 -41 63 -100
98 -101 131 -6 187 33 178 125 -5 54 -35 82 -119 109 -74 24 -95 49 -53 63 35
12 61 5 83 -20 27 -32 79 -30 81 3 2 29 -56 91 -87 92 -13 1 -33 3 -44 4 -11
1 -34 -3 -52 -9z"/>
<path d="M2427 3153 c-2 -5 -3 -87 -3 -183 l1 -175 135 0 c144 0 146 1 130 50
-6 17 -17 19 -96 20 l-89 0 0 40 0 40 85 5 84 5 2 28 c1 35 -5 38 -97 40 l-74
2 0 30 0 30 81 1 c44 0 85 3 90 7 5 3 11 19 12 36 l2 31 -129 0 c-72 0 -132
-3 -134 -7z"/>
<path d="M2739 3143 c-4 -93 -3 -337 2 -345 3 -5 21 -8 40 -6 l34 3 1 68 c1
37 4 71 7 74 3 3 17 3 30 -1 15 -3 39 -30 68 -76 43 -69 44 -70 86 -70 24 0
43 4 43 9 0 12 -77 128 -90 136 -16 10 -12 22 9 28 28 7 60 64 56 99 -5 38
-31 77 -58 87 -12 5 -68 9 -124 10 -93 2 -103 0 -104 -16z m187 -61 c17 -11
22 -35 12 -54 -7 -14 -21 -18 -62 -18 -48 0 -54 2 -58 23 -8 47 0 57 50 57 26
0 52 -4 58 -8z"/>
<path d="M3045 3128 c4 -18 11 -38 16 -44 5 -6 10 -23 11 -38 1 -14 7 -26 12
-26 5 0 7 -2 4 -5 -3 -3 11 -54 32 -113 l38 -107 40 -3 40 -3 23 68 c13 37 24
70 24 73 1 3 5 14 9 25 4 11 12 31 16 45 4 14 11 34 15 45 3 11 5 20 4 20 -1
0 2 9 8 20 6 11 13 32 17 48 6 26 5 27 -34 27 l-40 0 -37 -120 c-21 -66 -40
-120 -44 -120 -5 0 -26 62 -33 100 -1 3 -5 10 -9 16 -4 7 -13 36 -21 65 -13
54 -13 54 -56 57 l-42 3 7 -33z"/>
<path d="M3380 2975 l0 -185 40 0 40 0 -3 45 c-1 25 1 45 5 45 4 0 5 7 2 15
-9 23 -10 185 -1 185 5 0 5 6 0 12 -4 7 -6 25 -4 40 2 26 0 28 -38 28 l-41 0
0 -185z"/>
<path d="M3514 3148 c-5 -7 -7 -114 -5 -285 l1 -73 124 0 124 0 -2 33 c-2 17
-4 34 -5 37 0 3 -37 4 -81 4 -54 -1 -80 2 -81 10 0 6 -1 71 -2 145 l-2 134
-33 2 c-18 1 -35 -2 -38 -7z"/>
<path d="M3806 3151 c-1 -3 -2 -85 -2 -181 l1 -175 123 -3 122 -3 0 36 c0 39
6 37 -101 37 l-66 1 0 139 c-1 76 -4 142 -8 146 -8 9 -65 11 -69 3z"/>
<path d="M4189 3151 c-2 -14 -4 -23 -12 -41 -24 -57 -109 -288 -112 -302 -3
-15 3 -18 36 -18 36 0 41 3 52 33 6 17 10 36 9 40 -1 4 30 7 69 5 l71 -3 12
-35 c10 -32 15 -35 54 -38 23 -2 42 -1 42 2 0 5 -72 196 -113 301 -23 59 -24
60 -65 63 -24 2 -43 -1 -43 -7z m57 -138 c29 -68 28 -75 -14 -71 -20 2 -35 8
-33 13 18 49 23 62 24 78 2 25 6 21 23 -20z"/>
<path d="M5066 3053 c-22 -60 -45 -121 -52 -138 -6 -16 -17 -43 -22 -60 -5
-16 -13 -38 -17 -48 -7 -16 -3 -18 35 -15 40 3 44 6 55 38 l12 35 68 0 68 0
12 -35 c11 -32 16 -35 53 -38 23 -2 42 -1 42 1 0 10 -106 290 -126 335 -13 28
-20 32 -52 32 l-38 0 -38 -107z m113 -99 c1 -6 -15 -11 -34 -11 -40 0 -41 5
-18 65 l17 44 17 -43 c10 -24 18 -49 18 -55z"/>
<path d="M4872 2829 l-1 -40 37 3 c35 3 37 5 38 41 2 36 1 37 -36 37 -37 0
-38 0 -38 -41z"/>
<path d="M5339 2855 c-5 -61 -5 -60 34 -63 l37 -3 0 40 c0 40 -1 41 -35 41
-24 0 -35 -5 -36 -15z"/>
</g>
</svg>
